<svg id="visual" viewBox="0 0 960 540" width="960" height="540" xmlns="http://www.w3.org/2000/svg" xmlns:xlink="http://www.w3.org/1999/xlink" version="1.1"><path d="M0 114L9.3 118.5C18.7 123 37.3 132 56.2 132C75 132 94 123 112.8 117.7C131.7 112.3 150.3 110.7 169.2 110.7C188 110.7 207 112.3 225.8 120.5C244.7 128.7 263.3 143.3 282.2 143.3C301 143.3 320 128.7 338.8 136.7C357.7 144.7 376.3 175.3 395.2 189.8C414 204.3 433 202.7 451.8 200C470.7 197.3 489.3 193.7 508.2 202.7C527 211.7 546 233.3 564.8 236C583.7 238.7 602.3 222.3 621.2 196.2C640 170 659 134 677.8 119.7C696.7 105.3 715.3 112.7 734.2 125.3C753 138 772 156 790.8 166.8C809.7 177.7 828.3 181.3 847.2 182.2C866 183 885 181 903.8 166.5C922.7 152 941.3 125 950.7 111.5L960 98L960 0L950.7 0C941.3 0 922.7 0 903.8 0C885 0 866 0 847.2 0C828.3 0 809.7 0 790.8 0C772 0 753 0 734.2 0C715.3 0 696.7 0 677.8 0C659 0 640 0 621.2 0C602.3 0 583.7 0 564.8 0C546 0 527 0 508.2 0C489.3 0 470.7 0 451.8 0C433 0 414 0 395.2 0C376.3 0 357.7 0 338.8 0C320 0 301 0 282.2 0C263.3 0 244.7 0 225.8 0C207 0 188 0 169.2 0C150.3 0 131.7 0 112.8 0C94 0 75 0 56.2 0C37.3 0 18.7 0 9.3 0L0 0Z" fill="#513eb8"></path><path d="M0 201L9.3 200C18.7 199 37.3 197 56.2 189.8C75 182.7 94 170.3 112.8 170.3C131.7 170.3 150.3 182.7 169.2 188.8C188 195 207 195 225.8 200.5C244.7 206 263.3 217 282.2 218C301 219 320 210 338.8 222.5C357.7 235 376.3 269 395.2 277C414 285 433 267 451.8 258C470.7 249 489.3 249 508.2 260.8C527 272.7 546 296.3 564.8 300C583.7 303.7 602.3 287.3 621.2 265.7C640 244 659 217 677.8 201.7C696.7 186.3 715.3 182.7 734.2 190.8C753 199 772 219 790.8 228C809.7 237 828.3 235 847.2 232.2C866 229.3 885 225.7 903.8 212.2C922.7 198.7 941.3 175.3 950.7 163.7L960 152L960 96L950.7 109.5C941.3 123 922.7 150 903.8 164.5C885 179 866 181 847.2 180.2C828.3 179.3 809.7 175.7 790.8 164.8C772 154 753 136 734.2 123.3C715.3 110.7 696.7 103.3 677.8 117.7C659 132 640 168 621.2 194.2C602.3 220.3 583.7 236.7 564.8 234C546 231.3 527 209.7 508.2 200.7C489.3 191.7 470.7 195.3 451.8 198C433 200.7 414 202.3 395.2 187.8C376.3 173.3 357.7 142.7 338.8 134.7C320 126.7 301 141.3 282.2 141.3C263.3 141.3 244.7 126.7 225.8 118.5C207 110.3 188 108.7 169.2 108.7C150.3 108.7 131.7 110.3 112.8 115.7C94 121 75 130 56.2 130C37.3 130 18.7 121 9.3 116.5L0 112Z" fill="#614dd5"></path><path d="M0 401L9.3 394.7C18.7 388.3 37.3 375.7 56.2 366.7C75 357.7 94 352.3 112.8 363.2C131.7 374 150.3 401 169.2 406.3C188 411.7 207 395.3 225.8 389.8C244.7 384.3 263.3 389.7 282.2 395C301 400.3 320 405.7 338.8 406.7C357.7 407.7 376.3 404.3 395.2 406.2C414 408 433 415 451.8 412.2C470.7 409.3 489.3 396.7 508.2 399.3C527 402 546 420 564.8 421.8C583.7 423.7 602.3 409.3 621.2 402.2C640 395 659 395 677.8 389.7C696.7 384.3 715.3 373.7 734.2 377.3C753 381 772 399 790.8 409.8C809.7 420.7 828.3 424.3 847.2 419.8C866 415.3 885 402.7 903.8 396.3C922.7 390 941.3 390 950.7 390L960 390L960 150L950.7 161.7C941.3 173.3 922.7 196.7 903.8 210.2C885 223.7 866 227.3 847.2 230.2C828.3 233 809.7 235 790.8 226C772 217 753 197 734.2 188.8C715.3 180.7 696.7 184.3 677.8 199.7C659 215 640 242 621.2 263.7C602.3 285.3 583.7 301.7 564.8 298C546 294.3 527 270.7 508.2 258.8C489.3 247 470.7 247 451.8 256C433 265 414 283 395.2 275C376.3 267 357.7 233 338.8 220.5C320 208 301 217 282.2 216C263.3 215 244.7 204 225.8 198.5C207 193 188 193 169.2 186.8C150.3 180.7 131.7 168.3 112.8 168.3C94 168.3 75 180.7 56.2 187.8C37.3 195 18.7 197 9.3 198L0 199Z" fill="#715df2"></path><path d="M0 476L9.3 477.8C18.7 479.7 37.3 483.3 56.2 484.3C75 485.3 94 483.7 112.8 484.5C131.7 485.3 150.3 488.7 169.2 492.2C188 495.7 207 499.3 225.8 494.8C244.7 490.3 263.3 477.7 282.2 473.2C301 468.7 320 472.3 338.8 472.3C357.7 472.3 376.3 468.7 395.2 473.2C414 477.7 433 490.3 451.8 496.7C470.7 503 489.3 503 508.2 503C527 503 546 503 564.8 498.5C583.7 494 602.3 485 621.2 484.2C640 483.3 659 490.7 677.8 489.8C696.7 489 715.3 480 734.2 480C753 480 772 489 790.8 494.3C809.7 499.7 828.3 501.3 847.2 497.7C866 494 885 485 903.8 480.5C922.7 476 941.3 476 950.7 476L960 476L960 388L950.7 388C941.3 388 922.7 388 903.8 394.3C885 400.7 866 413.3 847.2 417.8C828.3 422.3 809.7 418.7 790.8 407.8C772 397 753 379 734.2 375.3C715.3 371.7 696.7 382.3 677.8 387.7C659 393 640 393 621.2 400.2C602.3 407.3 583.7 421.7 564.8 419.8C546 418 527 400 508.2 397.3C489.3 394.7 470.7 407.3 451.8 410.2C433 413 414 406 395.2 404.2C376.3 402.3 357.7 405.7 338.8 404.7C320 403.7 301 398.3 282.2 393C263.3 387.7 244.7 382.3 225.8 387.8C207 393.3 188 409.7 169.2 404.3C150.3 399 131.7 372 112.8 361.2C94 350.3 75 355.7 56.2 364.7C37.3 373.7 18.7 386.3 9.3 392.7L0 399Z" fill="#8877f6"></path><path d="M0 541L9.3 541C18.7 541 37.3 541 56.2 541C75 541 94 541 112.8 541C131.7 541 150.3 541 169.2 541C188 541 207 541 225.8 541C244.7 541 263.3 541 282.2 541C301 541 320 541 338.8 541C357.7 541 376.3 541 395.2 541C414 541 433 541 451.8 541C470.7 541 489.3 541 508.2 541C527 541 546 541 564.8 541C583.7 541 602.3 541 621.2 541C640 541 659 541 677.8 541C696.7 541 715.3 541 734.2 541C753 541 772 541 790.8 541C809.7 541 828.3 541 847.2 541C866 541 885 541 903.8 541C922.7 541 941.3 541 950.7 541L960 541L960 474L950.7 474C941.3 474 922.7 474 903.8 478.5C885 483 866 492 847.2 495.7C828.3 499.3 809.7 497.7 790.8 492.3C772 487 753 478 734.2 478C715.3 478 696.7 487 677.8 487.8C659 488.7 640 481.3 621.2 482.2C602.3 483 583.7 492 564.8 496.5C546 501 527 501 508.2 501C489.3 501 470.7 501 451.8 494.7C433 488.3 414 475.7 395.2 471.2C376.3 466.7 357.7 470.3 338.8 470.3C320 470.3 301 466.7 282.2 471.2C263.3 475.7 244.7 488.3 225.8 492.8C207 497.3 188 493.7 169.2 490.2C150.3 486.7 131.7 483.3 112.8 482.5C94 481.7 75 483.3 56.2 482.3C37.3 481.3 18.7 477.7 9.3 475.8L0 474Z" fill="#9e90fa"></path></svg>